<svg width="233" height="224" viewBox="0 0 233 224" fill="none" xmlns="http://www.w3.org/2000/svg">
<ellipse cx="116.5" cy="112" rx="116.5" ry="112" fill="url(#paint0_linear_211_57)"/>
<path d="M77.1359 164.6C77.1359 163.95 77.2509 163.315 77.4809 162.695C77.7209 162.065 78.0659 161.495 78.5159 160.985C78.9659 160.465 79.5159 160.055 80.1659 159.755C80.8159 159.445 81.5559 159.29 82.3859 159.29C83.3659 159.29 84.2109 159.505 84.9209 159.935C85.6409 160.365 86.1759 160.925 86.5259 161.615L84.9359 162.71C84.7559 162.31 84.5209 161.995 84.2309 161.765C83.9409 161.525 83.6309 161.36 83.3009 161.27C82.9709 161.17 82.6459 161.12 82.3259 161.12C81.8059 161.12 81.3509 161.225 80.9609 161.435C80.5809 161.645 80.2609 161.92 80.0009 162.26C79.7409 162.6 79.5459 162.98 79.4159 163.4C79.2959 163.82 79.2359 164.24 79.2359 164.66C79.2359 165.13 79.3109 165.585 79.4609 166.025C79.6109 166.455 79.8209 166.84 80.0909 167.18C80.3709 167.51 80.7009 167.775 81.0809 167.975C81.4709 168.165 81.8959 168.26 82.3559 168.26C82.6859 168.26 83.0209 168.205 83.3609 168.095C83.7009 167.985 84.0159 167.81 84.3059 167.57C84.5959 167.33 84.8209 167.02 84.9809 166.64L86.6759 167.615C86.4659 168.145 86.1209 168.595 85.6409 168.965C85.1709 169.335 84.6409 169.615 84.0509 169.805C83.4609 169.995 82.8759 170.09 82.2959 170.09C81.5359 170.09 80.8409 169.935 80.2109 169.625C79.5809 169.305 79.0359 168.885 78.5759 168.365C78.1259 167.835 77.7709 167.245 77.5109 166.595C77.2609 165.935 77.1359 165.27 77.1359 164.6ZM87.3291 167.675C87.3291 167.165 87.4691 166.72 87.7491 166.34C88.0391 165.95 88.4391 165.65 88.9491 165.44C89.4591 165.23 90.0441 165.125 90.7041 165.125C91.0341 165.125 91.3691 165.15 91.7091 165.2C92.0491 165.25 92.3441 165.33 92.5941 165.44V165.02C92.5941 164.52 92.4441 164.135 92.1441 163.865C91.8541 163.595 91.4191 163.46 90.8391 163.46C90.4091 163.46 89.9991 163.535 89.6091 163.685C89.2191 163.835 88.8091 164.055 88.3791 164.345L87.7341 163.025C88.2541 162.685 88.7841 162.43 89.3241 162.26C89.8741 162.09 90.4491 162.005 91.0491 162.005C92.1691 162.005 93.0391 162.285 93.6591 162.845C94.2891 163.405 94.6041 164.205 94.6041 165.245V167.75C94.6041 167.96 94.6391 168.11 94.7091 168.2C94.7891 168.29 94.9141 168.345 95.0841 168.365V170C94.9041 170.03 94.7391 170.055 94.5891 170.075C94.4491 170.095 94.3291 170.105 94.2291 170.105C93.8291 170.105 93.5241 170.015 93.3141 169.835C93.1141 169.655 92.9891 169.435 92.9391 169.175L92.8941 168.77C92.5541 169.21 92.1291 169.55 91.6191 169.79C91.1091 170.03 90.5891 170.15 90.0591 170.15C89.5391 170.15 89.0691 170.045 88.6491 169.835C88.2391 169.615 87.9141 169.32 87.6741 168.95C87.4441 168.57 87.3291 168.145 87.3291 167.675ZM92.2191 168.08C92.3291 167.96 92.4191 167.84 92.4891 167.72C92.5591 167.6 92.5941 167.49 92.5941 167.39V166.595C92.3541 166.495 92.0941 166.42 91.8141 166.37C91.5341 166.31 91.2691 166.28 91.0191 166.28C90.4991 166.28 90.0691 166.395 89.7291 166.625C89.3991 166.845 89.2341 167.14 89.2341 167.51C89.2341 167.71 89.2891 167.9 89.3991 168.08C89.5091 168.26 89.6691 168.405 89.8791 168.515C90.0891 168.625 90.3391 168.68 90.6291 168.68C90.9291 168.68 91.2241 168.625 91.5141 168.515C91.8041 168.395 92.0391 168.25 92.2191 168.08ZM108.692 170H106.682V165.59C106.682 164.97 106.572 164.515 106.352 164.225C106.142 163.925 105.847 163.775 105.467 163.775C105.077 163.775 104.702 163.93 104.342 164.24C103.992 164.54 103.742 164.935 103.592 165.425V170H101.582V165.59C101.582 164.96 101.472 164.5 101.252 164.21C101.042 163.92 100.747 163.775 100.367 163.775C99.9774 163.775 99.6024 163.925 99.2424 164.225C98.8924 164.525 98.6424 164.92 98.4924 165.41V170H96.4824V162.14H98.2974V163.595C98.5974 163.085 98.9974 162.695 99.4974 162.425C99.9974 162.145 100.572 162.005 101.222 162.005C101.872 162.005 102.377 162.165 102.737 162.485C103.107 162.805 103.342 163.2 103.442 163.67C103.762 163.13 104.167 162.72 104.657 162.44C105.157 162.15 105.717 162.005 106.337 162.005C106.827 162.005 107.222 162.095 107.522 162.275C107.832 162.445 108.072 162.68 108.242 162.98C108.412 163.27 108.527 163.6 108.587 163.97C108.657 164.34 108.692 164.715 108.692 165.095V170ZM115.152 170.15C114.542 170.15 114.002 170.015 113.532 169.745C113.072 169.465 112.712 169.09 112.452 168.62V173.195H110.442V162.14H112.197V163.49C112.497 163.03 112.877 162.67 113.337 162.41C113.797 162.14 114.322 162.005 114.912 162.005C115.442 162.005 115.927 162.11 116.367 162.32C116.817 162.53 117.207 162.825 117.537 163.205C117.867 163.575 118.122 164.005 118.302 164.495C118.492 164.975 118.587 165.495 118.587 166.055C118.587 166.815 118.437 167.505 118.137 168.125C117.847 168.745 117.442 169.24 116.922 169.61C116.412 169.97 115.822 170.15 115.152 170.15ZM114.477 168.44C114.787 168.44 115.067 168.375 115.317 168.245C115.567 168.115 115.782 167.94 115.962 167.72C116.152 167.49 116.292 167.235 116.382 166.955C116.482 166.665 116.532 166.365 116.532 166.055C116.532 165.725 116.477 165.42 116.367 165.14C116.267 164.86 116.117 164.615 115.917 164.405C115.717 164.185 115.482 164.015 115.212 163.895C114.952 163.775 114.667 163.715 114.357 163.715C114.167 163.715 113.972 163.75 113.772 163.82C113.582 163.88 113.397 163.97 113.217 164.09C113.037 164.21 112.877 164.35 112.737 164.51C112.607 164.67 112.512 164.845 112.452 165.035V166.88C112.572 167.17 112.732 167.435 112.932 167.675C113.142 167.915 113.382 168.105 113.652 168.245C113.922 168.375 114.197 168.44 114.477 168.44ZM119.409 167.675C119.409 167.165 119.549 166.72 119.829 166.34C120.119 165.95 120.519 165.65 121.029 165.44C121.539 165.23 122.124 165.125 122.784 165.125C123.114 165.125 123.449 165.15 123.789 165.2C124.129 165.25 124.424 165.33 124.674 165.44V165.02C124.674 164.52 124.524 164.135 124.224 163.865C123.934 163.595 123.499 163.46 122.919 163.46C122.489 163.46 122.079 163.535 121.689 163.685C121.299 163.835 120.889 164.055 120.459 164.345L119.814 163.025C120.334 162.685 120.864 162.43 121.404 162.26C121.954 162.09 122.529 162.005 123.129 162.005C124.249 162.005 125.119 162.285 125.739 162.845C126.369 163.405 126.684 164.205 126.684 165.245V167.75C126.684 167.96 126.719 168.11 126.789 168.2C126.869 168.29 126.994 168.345 127.164 168.365V170C126.984 170.03 126.819 170.055 126.669 170.075C126.529 170.095 126.409 170.105 126.309 170.105C125.909 170.105 125.604 170.015 125.394 169.835C125.194 169.655 125.069 169.435 125.019 169.175L124.974 168.77C124.634 169.21 124.209 169.55 123.699 169.79C123.189 170.03 122.669 170.15 122.139 170.15C121.619 170.15 121.149 170.045 120.729 169.835C120.319 169.615 119.994 169.32 119.754 168.95C119.524 168.57 119.409 168.145 119.409 167.675ZM124.299 168.08C124.409 167.96 124.499 167.84 124.569 167.72C124.639 167.6 124.674 167.49 124.674 167.39V166.595C124.434 166.495 124.174 166.42 123.894 166.37C123.614 166.31 123.349 166.28 123.099 166.28C122.579 166.28 122.149 166.395 121.809 166.625C121.479 166.845 121.314 167.14 121.314 167.51C121.314 167.71 121.369 167.9 121.479 168.08C121.589 168.26 121.749 168.405 121.959 168.515C122.169 168.625 122.419 168.68 122.709 168.68C123.009 168.68 123.304 168.625 123.594 168.515C123.884 168.395 124.119 168.25 124.299 168.08ZM135.867 170H133.857V165.59C133.857 164.96 133.747 164.5 133.527 164.21C133.307 163.92 133.002 163.775 132.612 163.775C132.342 163.775 132.067 163.845 131.787 163.985C131.517 164.125 131.272 164.32 131.052 164.57C130.832 164.81 130.672 165.09 130.572 165.41V170H128.562V162.14H130.377V163.595C130.577 163.255 130.832 162.97 131.142 162.74C131.452 162.5 131.807 162.32 132.207 162.2C132.617 162.07 133.047 162.005 133.497 162.005C133.987 162.005 134.387 162.095 134.697 162.275C135.017 162.445 135.257 162.68 135.417 162.98C135.587 163.27 135.702 163.6 135.762 163.97C135.832 164.34 135.867 164.715 135.867 165.095V170ZM133.377 160.97C133.077 160.97 132.817 160.915 132.597 160.805C132.387 160.685 132.192 160.57 132.012 160.46C131.832 160.35 131.632 160.295 131.412 160.295C131.192 160.295 131.027 160.355 130.917 160.475C130.817 160.585 130.752 160.7 130.722 160.82C130.702 160.94 130.692 161.005 130.692 161.015H129.582C129.582 160.925 129.612 160.775 129.672 160.565C129.732 160.355 129.827 160.14 129.957 159.92C130.097 159.69 130.277 159.495 130.497 159.335C130.727 159.175 131.007 159.095 131.337 159.095C131.647 159.095 131.902 159.155 132.102 159.275C132.302 159.395 132.492 159.515 132.672 159.635C132.862 159.745 133.077 159.8 133.317 159.8C133.557 159.8 133.732 159.74 133.842 159.62C133.952 159.5 134.022 159.38 134.052 159.26C134.092 159.14 134.112 159.07 134.112 159.05H135.222C135.222 159.12 135.192 159.255 135.132 159.455C135.072 159.655 134.967 159.875 134.817 160.115C134.677 160.345 134.487 160.545 134.247 160.715C134.017 160.885 133.727 160.97 133.377 160.97ZM137.075 167.675C137.075 167.165 137.215 166.72 137.495 166.34C137.785 165.95 138.185 165.65 138.695 165.44C139.205 165.23 139.79 165.125 140.45 165.125C140.78 165.125 141.115 165.15 141.455 165.2C141.795 165.25 142.09 165.33 142.34 165.44V165.02C142.34 164.52 142.19 164.135 141.89 163.865C141.6 163.595 141.165 163.46 140.585 163.46C140.155 163.46 139.745 163.535 139.355 163.685C138.965 163.835 138.555 164.055 138.125 164.345L137.48 163.025C138 162.685 138.53 162.43 139.07 162.26C139.62 162.09 140.195 162.005 140.795 162.005C141.915 162.005 142.785 162.285 143.405 162.845C144.035 163.405 144.35 164.205 144.35 165.245V167.75C144.35 167.96 144.385 168.11 144.455 168.2C144.535 168.29 144.66 168.345 144.83 168.365V170C144.65 170.03 144.485 170.055 144.335 170.075C144.195 170.095 144.075 170.105 143.975 170.105C143.575 170.105 143.27 170.015 143.06 169.835C142.86 169.655 142.735 169.435 142.685 169.175L142.64 168.77C142.3 169.21 141.875 169.55 141.365 169.79C140.855 170.03 140.335 170.15 139.805 170.15C139.285 170.15 138.815 170.045 138.395 169.835C137.985 169.615 137.66 169.32 137.42 168.95C137.19 168.57 137.075 168.145 137.075 167.675ZM141.965 168.08C142.075 167.96 142.165 167.84 142.235 167.72C142.305 167.6 142.34 167.49 142.34 167.39V166.595C142.1 166.495 141.84 166.42 141.56 166.37C141.28 166.31 141.015 166.28 140.765 166.28C140.245 166.28 139.815 166.395 139.475 166.625C139.145 166.845 138.98 167.14 138.98 167.51C138.98 167.71 139.035 167.9 139.145 168.08C139.255 168.26 139.415 168.405 139.625 168.515C139.835 168.625 140.085 168.68 140.375 168.68C140.675 168.68 140.97 168.625 141.26 168.515C141.55 168.395 141.785 168.25 141.965 168.08ZM149.123 170.15C148.453 170.15 147.813 170.04 147.203 169.82C146.593 169.6 146.068 169.275 145.628 168.845L146.348 167.54C146.818 167.92 147.278 168.2 147.728 168.38C148.188 168.56 148.628 168.65 149.048 168.65C149.438 168.65 149.748 168.58 149.978 168.44C150.218 168.3 150.338 168.09 150.338 167.81C150.338 167.62 150.273 167.475 150.143 167.375C150.013 167.265 149.823 167.17 149.573 167.09C149.333 167.01 149.038 166.92 148.688 166.82C148.108 166.63 147.623 166.445 147.233 166.265C146.843 166.085 146.548 165.86 146.348 165.59C146.158 165.31 146.063 164.955 146.063 164.525C146.063 164.005 146.193 163.56 146.453 163.19C146.723 162.81 147.093 162.515 147.563 162.305C148.043 162.095 148.603 161.99 149.243 161.99C149.803 161.99 150.333 162.08 150.833 162.26C151.333 162.43 151.788 162.71 152.198 163.1L151.388 164.375C150.988 164.065 150.608 163.84 150.248 163.7C149.888 163.55 149.523 163.475 149.153 163.475C148.943 163.475 148.743 163.5 148.553 163.55C148.373 163.6 148.223 163.685 148.103 163.805C147.993 163.915 147.938 164.075 147.938 164.285C147.938 164.475 147.988 164.625 148.088 164.735C148.198 164.835 148.358 164.925 148.568 165.005C148.788 165.085 149.053 165.175 149.363 165.275C149.993 165.455 150.523 165.64 150.953 165.83C151.393 166.02 151.723 166.255 151.943 166.535C152.163 166.805 152.273 167.18 152.273 167.66C152.273 168.44 151.988 169.05 151.418 169.49C150.848 169.93 150.083 170.15 149.123 170.15ZM77.5352 192.15C76.9252 192.15 76.3852 192.015 75.9152 191.745C75.4552 191.465 75.0952 191.09 74.8352 190.62V195.195H72.8252V184.14H74.5802V185.49C74.8802 185.03 75.2602 184.67 75.7202 184.41C76.1802 184.14 76.7052 184.005 77.2952 184.005C77.8252 184.005 78.3102 184.11 78.7502 184.32C79.2002 184.53 79.5902 184.825 79.9202 185.205C80.2502 185.575 80.5052 186.005 80.6852 186.495C80.8752 186.975 80.9702 187.495 80.9702 188.055C80.9702 188.815 80.8202 189.505 80.5202 190.125C80.2302 190.745 79.8252 191.24 79.3052 191.61C78.7952 191.97 78.2052 192.15 77.5352 192.15ZM76.8602 190.44C77.1702 190.44 77.4502 190.375 77.7002 190.245C77.9502 190.115 78.1652 189.94 78.3452 189.72C78.5352 189.49 78.6752 189.235 78.7652 188.955C78.8652 188.665 78.9152 188.365 78.9152 188.055C78.9152 187.725 78.8602 187.42 78.7502 187.14C78.6502 186.86 78.5002 186.615 78.3002 186.405C78.1002 186.185 77.8652 186.015 77.5952 185.895C77.3352 185.775 77.0502 185.715 76.7402 185.715C76.5502 185.715 76.3552 185.75 76.1552 185.82C75.9652 185.88 75.7802 185.97 75.6002 186.09C75.4202 186.21 75.2602 186.35 75.1202 186.51C74.9902 186.67 74.8952 186.845 74.8352 187.035V188.88C74.9552 189.17 75.1152 189.435 75.3152 189.675C75.5252 189.915 75.7652 190.105 76.0352 190.245C76.3052 190.375 76.5802 190.44 76.8602 190.44ZM82.257 189.06V184.14H84.267V188.625C84.267 189.225 84.377 189.68 84.597 189.99C84.817 190.29 85.142 190.44 85.572 190.44C85.832 190.44 86.087 190.39 86.337 190.29C86.597 190.18 86.832 190.02 87.042 189.81C87.262 189.6 87.447 189.335 87.597 189.015V184.14H89.607V189.75C89.607 189.96 89.642 190.11 89.712 190.2C89.792 190.29 89.917 190.345 90.087 190.365V192C89.887 192.03 89.717 192.05 89.577 192.06C89.447 192.08 89.327 192.09 89.217 192.09C88.857 192.09 88.562 192.01 88.332 191.85C88.112 191.68 87.982 191.45 87.942 191.16L87.897 190.53C87.547 191.06 87.097 191.465 86.547 191.745C85.997 192.015 85.392 192.15 84.732 192.15C83.922 192.15 83.307 191.89 82.887 191.37C82.467 190.84 82.257 190.07 82.257 189.06ZM96.0745 192.15C95.4745 192.15 94.9395 192.015 94.4695 191.745C93.9995 191.475 93.6295 191.105 93.3595 190.635V192H91.6045V181.05H93.6145V185.52C93.8945 185.05 94.2595 184.68 94.7095 184.41C95.1695 184.14 95.7045 184.005 96.3145 184.005C96.8245 184.005 97.2895 184.115 97.7095 184.335C98.1295 184.545 98.4895 184.84 98.7895 185.22C99.0995 185.6 99.3345 186.035 99.4945 186.525C99.6645 187.015 99.7495 187.54 99.7495 188.1C99.7495 188.66 99.6545 189.185 99.4645 189.675C99.2845 190.165 99.0295 190.6 98.6995 190.98C98.3695 191.35 97.9795 191.64 97.5295 191.85C97.0895 192.05 96.6045 192.15 96.0745 192.15ZM95.5195 190.44C95.8395 190.44 96.1295 190.38 96.3895 190.26C96.6595 190.13 96.8895 189.96 97.0795 189.75C97.2795 189.54 97.4295 189.295 97.5295 189.015C97.6395 188.725 97.6945 188.425 97.6945 188.115C97.6945 187.685 97.6045 187.29 97.4245 186.93C97.2545 186.56 97.0145 186.265 96.7045 186.045C96.4045 185.825 96.0495 185.715 95.6395 185.715C95.3495 185.715 95.0695 185.785 94.7995 185.925C94.5395 186.055 94.3045 186.235 94.0945 186.465C93.8945 186.695 93.7345 186.955 93.6145 187.245V189.12C93.6745 189.32 93.7695 189.5 93.8995 189.66C94.0395 189.82 94.1995 189.96 94.3795 190.08C94.5595 190.19 94.7445 190.28 94.9345 190.35C95.1345 190.41 95.3295 190.44 95.5195 190.44ZM101.096 181.05H103.106V189.48C103.106 189.84 103.166 190.085 103.286 190.215C103.406 190.335 103.571 190.395 103.781 190.395C103.941 190.395 104.106 190.375 104.276 190.335C104.446 190.295 104.596 190.245 104.726 190.185L104.996 191.715C104.726 191.845 104.411 191.945 104.051 192.015C103.691 192.085 103.366 192.12 103.076 192.12C102.446 192.12 101.956 191.955 101.606 191.625C101.266 191.285 101.096 190.805 101.096 190.185V181.05ZM105.872 192V184.14H107.882V192H105.872ZM105.872 183.045V181.05H107.882V183.045H105.872ZM113.355 192.15C112.715 192.15 112.14 192.045 111.63 191.835C111.12 191.615 110.685 191.315 110.325 190.935C109.965 190.545 109.685 190.105 109.485 189.615C109.295 189.125 109.2 188.61 109.2 188.07C109.2 187.33 109.365 186.655 109.695 186.045C110.035 185.425 110.515 184.93 111.135 184.56C111.755 184.19 112.49 184.005 113.34 184.005C114.19 184.005 114.92 184.19 115.53 184.56C116.14 184.93 116.595 185.415 116.895 186.015L114.93 186.615C114.76 186.325 114.535 186.105 114.255 185.955C113.975 185.795 113.665 185.715 113.325 185.715C112.945 185.715 112.595 185.815 112.275 186.015C111.965 186.205 111.72 186.48 111.54 186.84C111.36 187.19 111.27 187.6 111.27 188.07C111.27 188.53 111.36 188.94 111.54 189.3C111.73 189.65 111.98 189.93 112.29 190.14C112.6 190.34 112.945 190.44 113.325 190.44C113.565 190.44 113.79 190.4 114 190.32C114.22 190.24 114.415 190.13 114.585 189.99C114.755 189.85 114.88 189.69 114.96 189.51L116.925 190.11C116.745 190.5 116.48 190.85 116.13 191.16C115.79 191.47 115.385 191.715 114.915 191.895C114.455 192.065 113.935 192.15 113.355 192.15ZM118.162 192V184.14H120.172V192H118.162ZM118.162 183.045V181.05H120.172V183.045H118.162ZM126.695 191.595C126.525 191.665 126.32 191.745 126.08 191.835C125.84 191.925 125.58 191.995 125.3 192.045C125.03 192.105 124.755 192.135 124.475 192.135C124.105 192.135 123.765 192.07 123.455 191.94C123.145 191.81 122.895 191.605 122.705 191.325C122.525 191.035 122.435 190.66 122.435 190.2V185.685H121.4V184.14H122.435V181.59H124.445V184.14H126.095V185.685H124.445V189.525C124.455 189.795 124.53 189.99 124.67 190.11C124.81 190.23 124.985 190.29 125.195 190.29C125.405 190.29 125.61 190.255 125.81 190.185C126.01 190.115 126.17 190.055 126.29 190.005L126.695 191.595ZM127.202 189.675C127.202 189.165 127.342 188.72 127.622 188.34C127.912 187.95 128.312 187.65 128.822 187.44C129.332 187.23 129.917 187.125 130.577 187.125C130.907 187.125 131.242 187.15 131.582 187.2C131.922 187.25 132.217 187.33 132.467 187.44V187.02C132.467 186.52 132.317 186.135 132.017 185.865C131.727 185.595 131.292 185.46 130.712 185.46C130.282 185.46 129.872 185.535 129.482 185.685C129.092 185.835 128.682 186.055 128.252 186.345L127.607 185.025C128.127 184.685 128.657 184.43 129.197 184.26C129.747 184.09 130.322 184.005 130.922 184.005C132.042 184.005 132.912 184.285 133.532 184.845C134.162 185.405 134.477 186.205 134.477 187.245V189.75C134.477 189.96 134.512 190.11 134.582 190.2C134.662 190.29 134.787 190.345 134.957 190.365V192C134.777 192.03 134.612 192.055 134.462 192.075C134.322 192.095 134.202 192.105 134.102 192.105C133.702 192.105 133.397 192.015 133.187 191.835C132.987 191.655 132.862 191.435 132.812 191.175L132.767 190.77C132.427 191.21 132.002 191.55 131.492 191.79C130.982 192.03 130.462 192.15 129.932 192.15C129.412 192.15 128.942 192.045 128.522 191.835C128.112 191.615 127.787 191.32 127.547 190.95C127.317 190.57 127.202 190.145 127.202 189.675ZM132.092 190.08C132.202 189.96 132.292 189.84 132.362 189.72C132.432 189.6 132.467 189.49 132.467 189.39V188.595C132.227 188.495 131.967 188.42 131.687 188.37C131.407 188.31 131.142 188.28 130.892 188.28C130.372 188.28 129.942 188.395 129.602 188.625C129.272 188.845 129.107 189.14 129.107 189.51C129.107 189.71 129.162 189.9 129.272 190.08C129.382 190.26 129.542 190.405 129.752 190.515C129.962 190.625 130.212 190.68 130.502 190.68C130.802 190.68 131.097 190.625 131.387 190.515C131.677 190.395 131.912 190.25 132.092 190.08ZM141.035 185.88C140.425 185.88 139.88 186 139.4 186.24C138.92 186.47 138.575 186.805 138.365 187.245V192H136.355V184.14H138.2V185.82C138.48 185.28 138.835 184.855 139.265 184.545C139.695 184.235 140.15 184.065 140.63 184.035C140.74 184.035 140.825 184.035 140.885 184.035C140.945 184.035 140.995 184.04 141.035 184.05V185.88ZM142.156 192V184.14H144.166V192H142.156ZM142.156 183.045V181.05H144.166V183.045H142.156ZM145.439 189.675C145.439 189.165 145.579 188.72 145.859 188.34C146.149 187.95 146.549 187.65 147.059 187.44C147.569 187.23 148.154 187.125 148.814 187.125C149.144 187.125 149.479 187.15 149.819 187.2C150.159 187.25 150.454 187.33 150.704 187.44V187.02C150.704 186.52 150.554 186.135 150.254 185.865C149.964 185.595 149.529 185.46 148.949 185.46C148.519 185.46 148.109 185.535 147.719 185.685C147.329 185.835 146.919 186.055 146.489 186.345L145.844 185.025C146.364 184.685 146.894 184.43 147.434 184.26C147.984 184.09 148.559 184.005 149.159 184.005C150.279 184.005 151.149 184.285 151.769 184.845C152.399 185.405 152.714 186.205 152.714 187.245V189.75C152.714 189.96 152.749 190.11 152.819 190.2C152.899 190.29 153.024 190.345 153.194 190.365V192C153.014 192.03 152.849 192.055 152.699 192.075C152.559 192.095 152.439 192.105 152.339 192.105C151.939 192.105 151.634 192.015 151.424 191.835C151.224 191.655 151.099 191.435 151.049 191.175L151.004 190.77C150.664 191.21 150.239 191.55 149.729 191.79C149.219 192.03 148.699 192.15 148.169 192.15C147.649 192.15 147.179 192.045 146.759 191.835C146.349 191.615 146.024 191.32 145.784 190.95C145.554 190.57 145.439 190.145 145.439 189.675ZM150.329 190.08C150.439 189.96 150.529 189.84 150.599 189.72C150.669 189.6 150.704 189.49 150.704 189.39V188.595C150.464 188.495 150.204 188.42 149.924 188.37C149.644 188.31 149.379 188.28 149.129 188.28C148.609 188.28 148.179 188.395 147.839 188.625C147.509 188.845 147.344 189.14 147.344 189.51C147.344 189.71 147.399 189.9 147.509 190.08C147.619 190.26 147.779 190.405 147.989 190.515C148.199 190.625 148.449 190.68 148.739 190.68C149.039 190.68 149.334 190.625 149.624 190.515C149.914 190.395 150.149 190.25 150.329 190.08ZM157.488 192.15C156.818 192.15 156.178 192.04 155.568 191.82C154.958 191.6 154.433 191.275 153.993 190.845L154.713 189.54C155.183 189.92 155.643 190.2 156.093 190.38C156.553 190.56 156.993 190.65 157.413 190.65C157.803 190.65 158.113 190.58 158.343 190.44C158.583 190.3 158.703 190.09 158.703 189.81C158.703 189.62 158.638 189.475 158.508 189.375C158.378 189.265 158.188 189.17 157.938 189.09C157.698 189.01 157.403 188.92 157.053 188.82C156.473 188.63 155.988 188.445 155.598 188.265C155.208 188.085 154.913 187.86 154.713 187.59C154.523 187.31 154.428 186.955 154.428 186.525C154.428 186.005 154.558 185.56 154.818 185.19C155.088 184.81 155.458 184.515 155.928 184.305C156.408 184.095 156.968 183.99 157.608 183.99C158.168 183.99 158.698 184.08 159.198 184.26C159.698 184.43 160.153 184.71 160.563 185.1L159.753 186.375C159.353 186.065 158.973 185.84 158.613 185.7C158.253 185.55 157.888 185.475 157.518 185.475C157.308 185.475 157.108 185.5 156.918 185.55C156.738 185.6 156.588 185.685 156.468 185.805C156.358 185.915 156.303 186.075 156.303 186.285C156.303 186.475 156.353 186.625 156.453 186.735C156.563 186.835 156.723 186.925 156.933 187.005C157.153 187.085 157.418 187.175 157.728 187.275C158.358 187.455 158.888 187.64 159.318 187.83C159.758 188.02 160.088 188.255 160.308 188.535C160.528 188.805 160.638 189.18 160.638 189.66C160.638 190.44 160.353 191.05 159.783 191.49C159.213 191.93 158.448 192.15 157.488 192.15Z" fill="white"/>
<path d="M85.667 128.833H105.334V109.667H125V90.5H144.667V71.3333H164.334M85.667 85.7083L120.084 52.1666V71.3333M100.417 52.1666H120.084" stroke="white" stroke-width="9" stroke-linecap="round" stroke-linejoin="round"/>
<defs>
<linearGradient id="paint0_linear_211_57" x1="116.5" y1="0" x2="116.5" y2="224" gradientUnits="userSpaceOnUse">
<stop stop-color="#384F63"/>
<stop offset="1" stop-color="#319ABE"/>
</linearGradient>
</defs>
</svg>
