<svg width="233" height="224" viewBox="0 0 233 224" fill="none" xmlns="http://www.w3.org/2000/svg">
<ellipse cx="116.5" cy="112" rx="116.5" ry="112" fill="url(#paint0_linear_211_62)"/>
<path d="M51.6407 173.905C51.6407 174.225 51.6057 174.53 51.5357 174.82C51.4657 175.1 51.3457 175.36 51.1757 175.6C51.0057 175.83 50.7507 176.045 50.4107 176.245C50.2607 176.335 50.0757 176.44 49.8557 176.56C49.6357 176.68 49.4157 176.82 49.1957 176.98C48.9857 177.13 48.8107 177.315 48.6707 177.535C48.5307 177.745 48.4607 177.99 48.4607 178.27C48.4607 178.54 48.5257 178.77 48.6557 178.96C48.7957 179.16 48.9707 179.31 49.1807 179.41C49.4007 179.51 49.6357 179.56 49.8857 179.56C50.1757 179.56 50.4307 179.495 50.6507 179.365C50.8807 179.245 51.0807 179.09 51.2507 178.9C51.4207 178.72 51.5557 178.54 51.6557 178.36L52.9607 179.26C52.7807 179.67 52.5307 180.02 52.2107 180.31C51.9007 180.6 51.5357 180.82 51.1157 180.97C50.7057 181.12 50.2707 181.195 49.8107 181.195C49.4407 181.195 49.0707 181.135 48.7007 181.015C48.3307 180.905 47.9957 180.73 47.6957 180.49C47.3957 180.25 47.1557 179.945 46.9757 179.575C46.7957 179.205 46.7057 178.76 46.7057 178.24C46.7057 177.92 46.7407 177.635 46.8107 177.385C46.8807 177.135 46.9857 176.915 47.1257 176.725C47.2657 176.525 47.4307 176.345 47.6207 176.185C47.8207 176.025 48.0407 175.87 48.2807 175.72C48.5507 175.55 48.8107 175.395 49.0607 175.255C49.3207 175.105 49.5357 174.93 49.7057 174.73C49.8857 174.52 49.9757 174.245 49.9757 173.905H51.6407ZM51.5957 170.41V172.48H49.9457V170.41H51.5957ZM53.6784 172.6C53.6784 171.95 53.7934 171.315 54.0234 170.695C54.2634 170.065 54.6084 169.495 55.0584 168.985C55.5084 168.465 56.0584 168.055 56.7084 167.755C57.3584 167.445 58.0984 167.29 58.9284 167.29C59.9084 167.29 60.7534 167.505 61.4634 167.935C62.1834 168.365 62.7184 168.925 63.0684 169.615L61.4784 170.71C61.2984 170.31 61.0634 169.995 60.7734 169.765C60.4834 169.525 60.1734 169.36 59.8434 169.27C59.5134 169.17 59.1884 169.12 58.8684 169.12C58.3484 169.12 57.8934 169.225 57.5034 169.435C57.1234 169.645 56.8034 169.92 56.5434 170.26C56.2834 170.6 56.0884 170.98 55.9584 171.4C55.8384 171.82 55.7784 172.24 55.7784 172.66C55.7784 173.13 55.8534 173.585 56.0034 174.025C56.1534 174.455 56.3634 174.84 56.6334 175.18C56.9134 175.51 57.2434 175.775 57.6234 175.975C58.0134 176.165 58.4384 176.26 58.8984 176.26C59.2284 176.26 59.5634 176.205 59.9034 176.095C60.2434 175.985 60.5584 175.81 60.8484 175.57C61.1384 175.33 61.3634 175.02 61.5234 174.64L63.2184 175.615C63.0084 176.145 62.6634 176.595 62.1834 176.965C61.7134 177.335 61.1834 177.615 60.5934 177.805C60.0034 177.995 59.4184 178.09 58.8384 178.09C58.0784 178.09 57.3834 177.935 56.7534 177.625C56.1234 177.305 55.5784 176.885 55.1184 176.365C54.6684 175.835 54.3134 175.245 54.0534 174.595C53.8034 173.935 53.6784 173.27 53.6784 172.6ZM68.0123 178.15C67.3723 178.15 66.7973 178.045 66.2873 177.835C65.7773 177.615 65.3423 177.315 64.9823 176.935C64.6323 176.555 64.3623 176.12 64.1723 175.63C63.9823 175.14 63.8873 174.625 63.8873 174.085C63.8873 173.535 63.9823 173.015 64.1723 172.525C64.3623 172.035 64.6323 171.6 64.9823 171.22C65.3423 170.84 65.7773 170.545 66.2873 170.335C66.7973 170.115 67.3723 170.005 68.0123 170.005C68.6523 170.005 69.2223 170.115 69.7223 170.335C70.2323 170.545 70.6673 170.84 71.0273 171.22C71.3873 171.6 71.6573 172.035 71.8373 172.525C72.0273 173.015 72.1223 173.535 72.1223 174.085C72.1223 174.625 72.0273 175.14 71.8373 175.63C71.6573 176.12 71.3873 176.555 71.0273 176.935C70.6773 177.315 70.2473 177.615 69.7373 177.835C69.2273 178.045 68.6523 178.15 68.0123 178.15ZM65.9573 174.085C65.9573 174.545 66.0473 174.955 66.2273 175.315C66.4073 175.665 66.6523 175.94 66.9623 176.14C67.2723 176.34 67.6223 176.44 68.0123 176.44C68.3923 176.44 68.7373 176.34 69.0473 176.14C69.3573 175.93 69.6023 175.65 69.7823 175.3C69.9723 174.94 70.0673 174.53 70.0673 174.07C70.0673 173.62 69.9723 173.215 69.7823 172.855C69.6023 172.495 69.3573 172.215 69.0473 172.015C68.7373 171.815 68.3923 171.715 68.0123 171.715C67.6223 171.715 67.2723 171.82 66.9623 172.03C66.6523 172.23 66.4073 172.51 66.2273 172.87C66.0473 173.22 65.9573 173.625 65.9573 174.085ZM68.6723 169.225L67.3823 168.835L68.1923 167.05H70.0673L68.6723 169.225ZM85.689 178H83.679V173.59C83.679 172.97 83.569 172.515 83.349 172.225C83.139 171.925 82.844 171.775 82.464 171.775C82.074 171.775 81.699 171.93 81.339 172.24C80.989 172.54 80.739 172.935 80.589 173.425V178H78.579V173.59C78.579 172.96 78.469 172.5 78.249 172.21C78.039 171.92 77.744 171.775 77.364 171.775C76.974 171.775 76.599 171.925 76.239 172.225C75.889 172.525 75.639 172.92 75.489 173.41V178H73.479V170.14H75.294V171.595C75.594 171.085 75.994 170.695 76.494 170.425C76.994 170.145 77.569 170.005 78.219 170.005C78.869 170.005 79.374 170.165 79.734 170.485C80.104 170.805 80.339 171.2 80.439 171.67C80.759 171.13 81.164 170.72 81.654 170.44C82.154 170.15 82.714 170.005 83.334 170.005C83.824 170.005 84.219 170.095 84.519 170.275C84.829 170.445 85.069 170.68 85.239 170.98C85.409 171.27 85.524 171.6 85.584 171.97C85.654 172.34 85.689 172.715 85.689 173.095V178ZM91.0689 178.15C90.4289 178.15 89.8539 178.045 89.3439 177.835C88.8339 177.615 88.3989 177.315 88.0389 176.935C87.6889 176.555 87.4189 176.12 87.2289 175.63C87.0389 175.14 86.9439 174.625 86.9439 174.085C86.9439 173.535 87.0389 173.015 87.2289 172.525C87.4189 172.035 87.6889 171.6 88.0389 171.22C88.3989 170.84 88.8339 170.545 89.3439 170.335C89.8539 170.115 90.4289 170.005 91.0689 170.005C91.7089 170.005 92.2789 170.115 92.7789 170.335C93.2889 170.545 93.7239 170.84 94.0839 171.22C94.4439 171.6 94.7139 172.035 94.8939 172.525C95.0839 173.015 95.1789 173.535 95.1789 174.085C95.1789 174.625 95.0839 175.14 94.8939 175.63C94.7139 176.12 94.4439 176.555 94.0839 176.935C93.7339 177.315 93.3039 177.615 92.7939 177.835C92.2839 178.045 91.7089 178.15 91.0689 178.15ZM89.0139 174.085C89.0139 174.545 89.1039 174.955 89.2839 175.315C89.4639 175.665 89.7089 175.94 90.0189 176.14C90.3289 176.34 90.6789 176.44 91.0689 176.44C91.4489 176.44 91.7939 176.34 92.1039 176.14C92.4139 175.93 92.6589 175.65 92.8389 175.3C93.0289 174.94 93.1239 174.53 93.1239 174.07C93.1239 173.62 93.0289 173.215 92.8389 172.855C92.6589 172.495 92.4139 172.215 92.1039 172.015C91.7939 171.815 91.4489 171.715 91.0689 171.715C90.6789 171.715 90.3289 171.82 90.0189 172.03C89.7089 172.23 89.4639 172.51 89.2839 172.87C89.1039 173.22 89.0139 173.625 89.0139 174.085ZM104.849 177.595C104.679 177.665 104.474 177.745 104.234 177.835C103.994 177.925 103.734 177.995 103.454 178.045C103.184 178.105 102.909 178.135 102.629 178.135C102.259 178.135 101.919 178.07 101.609 177.94C101.299 177.81 101.049 177.605 100.859 177.325C100.679 177.035 100.589 176.66 100.589 176.2V171.685H99.5541V170.14H100.589V167.59H102.599V170.14H104.249V171.685H102.599V175.525C102.609 175.795 102.684 175.99 102.824 176.11C102.964 176.23 103.139 176.29 103.349 176.29C103.559 176.29 103.764 176.255 103.964 176.185C104.164 176.115 104.324 176.055 104.444 176.005L104.849 177.595ZM110.576 171.88C109.966 171.88 109.421 172 108.941 172.24C108.461 172.47 108.116 172.805 107.906 173.245V178H105.896V170.14H107.741V171.82C108.021 171.28 108.376 170.855 108.806 170.545C109.236 170.235 109.691 170.065 110.171 170.035C110.281 170.035 110.366 170.035 110.426 170.035C110.486 170.035 110.536 170.04 110.576 170.05V171.88ZM111.113 175.675C111.113 175.165 111.253 174.72 111.533 174.34C111.823 173.95 112.223 173.65 112.733 173.44C113.243 173.23 113.828 173.125 114.488 173.125C114.818 173.125 115.153 173.15 115.493 173.2C115.833 173.25 116.128 173.33 116.378 173.44V173.02C116.378 172.52 116.228 172.135 115.928 171.865C115.638 171.595 115.203 171.46 114.623 171.46C114.193 171.46 113.783 171.535 113.393 171.685C113.003 171.835 112.593 172.055 112.163 172.345L111.518 171.025C112.038 170.685 112.568 170.43 113.108 170.26C113.658 170.09 114.233 170.005 114.833 170.005C115.953 170.005 116.823 170.285 117.443 170.845C118.073 171.405 118.388 172.205 118.388 173.245V175.75C118.388 175.96 118.423 176.11 118.493 176.2C118.573 176.29 118.698 176.345 118.868 176.365V178C118.688 178.03 118.523 178.055 118.373 178.075C118.233 178.095 118.113 178.105 118.013 178.105C117.613 178.105 117.308 178.015 117.098 177.835C116.898 177.655 116.773 177.435 116.723 177.175L116.678 176.77C116.338 177.21 115.913 177.55 115.403 177.79C114.893 178.03 114.373 178.15 113.843 178.15C113.323 178.15 112.853 178.045 112.433 177.835C112.023 177.615 111.698 177.32 111.458 176.95C111.228 176.57 111.113 176.145 111.113 175.675ZM116.003 176.08C116.113 175.96 116.203 175.84 116.273 175.72C116.343 175.6 116.378 175.49 116.378 175.39V174.595C116.138 174.495 115.878 174.42 115.598 174.37C115.318 174.31 115.053 174.28 114.803 174.28C114.283 174.28 113.853 174.395 113.513 174.625C113.183 174.845 113.018 175.14 113.018 175.51C113.018 175.71 113.073 175.9 113.183 176.08C113.293 176.26 113.453 176.405 113.663 176.515C113.873 176.625 114.123 176.68 114.413 176.68C114.713 176.68 115.008 176.625 115.298 176.515C115.588 176.395 115.823 176.25 116.003 176.08ZM124.736 178.15C124.136 178.15 123.601 178.015 123.131 177.745C122.661 177.475 122.291 177.105 122.021 176.635V178H120.266V167.05H122.276V171.52C122.556 171.05 122.921 170.68 123.371 170.41C123.831 170.14 124.366 170.005 124.976 170.005C125.486 170.005 125.951 170.115 126.371 170.335C126.791 170.545 127.151 170.84 127.451 171.22C127.761 171.6 127.996 172.035 128.156 172.525C128.326 173.015 128.411 173.54 128.411 174.1C128.411 174.66 128.316 175.185 128.126 175.675C127.946 176.165 127.691 176.6 127.361 176.98C127.031 177.35 126.641 177.64 126.191 177.85C125.751 178.05 125.266 178.15 124.736 178.15ZM124.181 176.44C124.501 176.44 124.791 176.38 125.051 176.26C125.321 176.13 125.551 175.96 125.741 175.75C125.941 175.54 126.091 175.295 126.191 175.015C126.301 174.725 126.356 174.425 126.356 174.115C126.356 173.685 126.266 173.29 126.086 172.93C125.916 172.56 125.676 172.265 125.366 172.045C125.066 171.825 124.711 171.715 124.301 171.715C124.011 171.715 123.731 171.785 123.461 171.925C123.201 172.055 122.966 172.235 122.756 172.465C122.556 172.695 122.396 172.955 122.276 173.245V175.12C122.336 175.32 122.431 175.5 122.561 175.66C122.701 175.82 122.861 175.96 123.041 176.08C123.221 176.19 123.406 176.28 123.596 176.35C123.796 176.41 123.991 176.44 124.181 176.44ZM129.233 175.675C129.233 175.165 129.373 174.72 129.653 174.34C129.943 173.95 130.343 173.65 130.853 173.44C131.363 173.23 131.948 173.125 132.608 173.125C132.938 173.125 133.273 173.15 133.613 173.2C133.953 173.25 134.248 173.33 134.498 173.44V173.02C134.498 172.52 134.348 172.135 134.048 171.865C133.758 171.595 133.323 171.46 132.743 171.46C132.313 171.46 131.903 171.535 131.513 171.685C131.123 171.835 130.713 172.055 130.283 172.345L129.638 171.025C130.158 170.685 130.688 170.43 131.228 170.26C131.778 170.09 132.353 170.005 132.953 170.005C134.073 170.005 134.943 170.285 135.563 170.845C136.193 171.405 136.508 172.205 136.508 173.245V175.75C136.508 175.96 136.543 176.11 136.613 176.2C136.693 176.29 136.818 176.345 136.988 176.365V178C136.808 178.03 136.643 178.055 136.493 178.075C136.353 178.095 136.233 178.105 136.133 178.105C135.733 178.105 135.428 178.015 135.218 177.835C135.018 177.655 134.893 177.435 134.843 177.175L134.798 176.77C134.458 177.21 134.033 177.55 133.523 177.79C133.013 178.03 132.493 178.15 131.963 178.15C131.443 178.15 130.973 178.045 130.553 177.835C130.143 177.615 129.818 177.32 129.578 176.95C129.348 176.57 129.233 176.145 129.233 175.675ZM134.123 176.08C134.233 175.96 134.323 175.84 134.393 175.72C134.463 175.6 134.498 175.49 134.498 175.39V174.595C134.258 174.495 133.998 174.42 133.718 174.37C133.438 174.31 133.173 174.28 132.923 174.28C132.403 174.28 131.973 174.395 131.633 174.625C131.303 174.845 131.138 175.14 131.138 175.51C131.138 175.71 131.193 175.9 131.303 176.08C131.413 176.26 131.573 176.405 131.783 176.515C131.993 176.625 132.243 176.68 132.533 176.68C132.833 176.68 133.128 176.625 133.418 176.515C133.708 176.395 133.943 176.25 134.123 176.08ZM137.741 180.94C137.371 180.94 137.016 180.88 136.676 180.76C136.336 180.65 136.026 180.475 135.746 180.235L136.616 178.87C136.726 178.99 136.861 179.075 137.021 179.125C137.181 179.175 137.341 179.2 137.501 179.2C137.681 179.2 137.841 179.155 137.981 179.065C138.131 178.985 138.246 178.87 138.326 178.72C138.416 178.57 138.461 178.4 138.461 178.21V170.14H140.471V178.06C140.471 178.62 140.346 179.12 140.096 179.56C139.856 180 139.531 180.34 139.121 180.58C138.721 180.82 138.261 180.94 137.741 180.94ZM138.461 169.045V167.05H140.471V169.045H138.461ZM141.757 175.675C141.757 175.165 141.897 174.72 142.177 174.34C142.467 173.95 142.867 173.65 143.377 173.44C143.887 173.23 144.472 173.125 145.132 173.125C145.462 173.125 145.797 173.15 146.137 173.2C146.477 173.25 146.772 173.33 147.022 173.44V173.02C147.022 172.52 146.872 172.135 146.572 171.865C146.282 171.595 145.847 171.46 145.267 171.46C144.837 171.46 144.427 171.535 144.037 171.685C143.647 171.835 143.237 172.055 142.807 172.345L142.162 171.025C142.682 170.685 143.212 170.43 143.752 170.26C144.302 170.09 144.877 170.005 145.477 170.005C146.597 170.005 147.467 170.285 148.087 170.845C148.717 171.405 149.032 172.205 149.032 173.245V175.75C149.032 175.96 149.067 176.11 149.137 176.2C149.217 176.29 149.342 176.345 149.512 176.365V178C149.332 178.03 149.167 178.055 149.017 178.075C148.877 178.095 148.757 178.105 148.657 178.105C148.257 178.105 147.952 178.015 147.742 177.835C147.542 177.655 147.417 177.435 147.367 177.175L147.322 176.77C146.982 177.21 146.557 177.55 146.047 177.79C145.537 178.03 145.017 178.15 144.487 178.15C143.967 178.15 143.497 178.045 143.077 177.835C142.667 177.615 142.342 177.32 142.102 176.95C141.872 176.57 141.757 176.145 141.757 175.675ZM146.647 176.08C146.757 175.96 146.847 175.84 146.917 175.72C146.987 175.6 147.022 175.49 147.022 175.39V174.595C146.782 174.495 146.522 174.42 146.242 174.37C145.962 174.31 145.697 174.28 145.447 174.28C144.927 174.28 144.497 174.395 144.157 174.625C143.827 174.845 143.662 175.14 143.662 175.51C143.662 175.71 143.717 175.9 143.827 176.08C143.937 176.26 144.097 176.405 144.307 176.515C144.517 176.625 144.767 176.68 145.057 176.68C145.357 176.68 145.652 176.625 145.942 176.515C146.232 176.395 146.467 176.25 146.647 176.08ZM163.121 178H161.111V173.59C161.111 172.97 161.001 172.515 160.781 172.225C160.571 171.925 160.276 171.775 159.896 171.775C159.506 171.775 159.131 171.93 158.771 172.24C158.421 172.54 158.171 172.935 158.021 173.425V178H156.011V173.59C156.011 172.96 155.901 172.5 155.681 172.21C155.471 171.92 155.176 171.775 154.796 171.775C154.406 171.775 154.031 171.925 153.671 172.225C153.321 172.525 153.071 172.92 152.921 173.41V178H150.911V170.14H152.726V171.595C153.026 171.085 153.426 170.695 153.926 170.425C154.426 170.145 155.001 170.005 155.651 170.005C156.301 170.005 156.806 170.165 157.166 170.485C157.536 170.805 157.771 171.2 157.871 171.67C158.191 171.13 158.596 170.72 159.086 170.44C159.586 170.15 160.146 170.005 160.766 170.005C161.256 170.005 161.651 170.095 161.951 170.275C162.261 170.445 162.501 170.68 162.671 170.98C162.841 171.27 162.956 171.6 163.016 171.97C163.086 172.34 163.121 172.715 163.121 173.095V178ZM168.501 178.15C167.861 178.15 167.286 178.045 166.776 177.835C166.266 177.615 165.831 177.315 165.471 176.935C165.121 176.555 164.851 176.12 164.661 175.63C164.471 175.14 164.376 174.625 164.376 174.085C164.376 173.535 164.471 173.015 164.661 172.525C164.851 172.035 165.121 171.6 165.471 171.22C165.831 170.84 166.266 170.545 166.776 170.335C167.286 170.115 167.861 170.005 168.501 170.005C169.141 170.005 169.711 170.115 170.211 170.335C170.721 170.545 171.156 170.84 171.516 171.22C171.876 171.6 172.146 172.035 172.326 172.525C172.516 173.015 172.611 173.535 172.611 174.085C172.611 174.625 172.516 175.14 172.326 175.63C172.146 176.12 171.876 176.555 171.516 176.935C171.166 177.315 170.736 177.615 170.226 177.835C169.716 178.045 169.141 178.15 168.501 178.15ZM166.446 174.085C166.446 174.545 166.536 174.955 166.716 175.315C166.896 175.665 167.141 175.94 167.451 176.14C167.761 176.34 168.111 176.44 168.501 176.44C168.881 176.44 169.226 176.34 169.536 176.14C169.846 175.93 170.091 175.65 170.271 175.3C170.461 174.94 170.556 174.53 170.556 174.07C170.556 173.62 170.461 173.215 170.271 172.855C170.091 172.495 169.846 172.215 169.536 172.015C169.226 171.815 168.881 171.715 168.501 171.715C168.111 171.715 167.761 171.82 167.451 172.03C167.141 172.23 166.896 172.51 166.716 172.87C166.536 173.22 166.446 173.625 166.446 174.085ZM176.862 178.15C176.192 178.15 175.552 178.04 174.942 177.82C174.332 177.6 173.807 177.275 173.367 176.845L174.087 175.54C174.557 175.92 175.017 176.2 175.467 176.38C175.927 176.56 176.367 176.65 176.787 176.65C177.177 176.65 177.487 176.58 177.717 176.44C177.957 176.3 178.077 176.09 178.077 175.81C178.077 175.62 178.012 175.475 177.882 175.375C177.752 175.265 177.562 175.17 177.312 175.09C177.072 175.01 176.777 174.92 176.427 174.82C175.847 174.63 175.362 174.445 174.972 174.265C174.582 174.085 174.287 173.86 174.087 173.59C173.897 173.31 173.802 172.955 173.802 172.525C173.802 172.005 173.932 171.56 174.192 171.19C174.462 170.81 174.832 170.515 175.302 170.305C175.782 170.095 176.342 169.99 176.982 169.99C177.542 169.99 178.072 170.08 178.572 170.26C179.072 170.43 179.527 170.71 179.937 171.1L179.127 172.375C178.727 172.065 178.347 171.84 177.987 171.7C177.627 171.55 177.262 171.475 176.892 171.475C176.682 171.475 176.482 171.5 176.292 171.55C176.112 171.6 175.962 171.685 175.842 171.805C175.732 171.915 175.677 172.075 175.677 172.285C175.677 172.475 175.727 172.625 175.827 172.735C175.937 172.835 176.097 172.925 176.307 173.005C176.527 173.085 176.792 173.175 177.102 173.275C177.732 173.455 178.262 173.64 178.692 173.83C179.132 174.02 179.462 174.255 179.682 174.535C179.902 174.805 180.012 175.18 180.012 175.66C180.012 176.44 179.727 177.05 179.157 177.49C178.587 177.93 177.822 178.15 176.862 178.15ZM182.294 174.505C182.294 174.185 182.324 173.885 182.384 173.605C182.454 173.315 182.579 173.05 182.759 172.81C182.939 172.57 183.194 172.355 183.524 172.165C183.664 172.075 183.844 171.97 184.064 171.85C184.294 171.73 184.514 171.595 184.724 171.445C184.934 171.285 185.109 171.1 185.249 170.89C185.399 170.67 185.474 170.42 185.474 170.14C185.474 169.86 185.404 169.625 185.264 169.435C185.134 169.245 184.959 169.1 184.739 169C184.529 168.9 184.299 168.85 184.049 168.85C183.759 168.85 183.499 168.915 183.269 169.045C183.039 169.165 182.844 169.315 182.684 169.495C182.524 169.675 182.389 169.86 182.279 170.05L180.974 169.15C181.154 168.74 181.399 168.39 181.709 168.1C182.029 167.81 182.394 167.59 182.804 167.44C183.224 167.29 183.659 167.215 184.109 167.215C184.489 167.215 184.864 167.275 185.234 167.395C185.604 167.505 185.939 167.68 186.239 167.92C186.539 168.16 186.779 168.465 186.959 168.835C187.139 169.205 187.229 169.65 187.229 170.17C187.229 170.49 187.189 170.775 187.109 171.025C187.039 171.275 186.934 171.5 186.794 171.7C186.664 171.89 186.499 172.065 186.299 172.225C186.099 172.385 185.884 172.54 185.654 172.69C185.394 172.85 185.129 173.005 184.859 173.155C184.599 173.305 184.379 173.485 184.199 173.695C184.029 173.895 183.944 174.165 183.944 174.505H182.294ZM182.324 178V175.93H183.989V178H182.324Z" fill="white"/>
<path d="M117 147.75C148.066 147.75 173.25 123.238 173.25 93C173.25 62.7624 148.066 38.25 117 38.25C85.934 38.25 60.75 62.7624 60.75 93C60.75 123.238 85.934 147.75 117 147.75Z" stroke="white" stroke-width="6" stroke-linecap="round" stroke-linejoin="round"/>
<path d="M117 68.6666H117.063M110.75 93H117V117.333H123.25" stroke="white" stroke-width="15" stroke-linecap="round" stroke-linejoin="round"/>
<defs>
<linearGradient id="paint0_linear_211_62" x1="116.5" y1="0" x2="116.5" y2="224" gradientUnits="userSpaceOnUse">
<stop stop-color="#384F63"/>
<stop offset="1" stop-color="#319ABE"/>
</linearGradient>
</defs>
</svg>
