<svg width="233" height="224" viewBox="0 0 233 224" fill="none" xmlns="http://www.w3.org/2000/svg">
<ellipse cx="116.5" cy="112" rx="116.5" ry="112" fill="url(#paint0_linear_211_69)"/>
<path d="M59.4425 172.6C59.4425 171.95 59.5575 171.315 59.7875 170.695C60.0275 170.065 60.3725 169.495 60.8225 168.985C61.2725 168.465 61.8225 168.055 62.4725 167.755C63.1225 167.445 63.8625 167.29 64.6925 167.29C65.6725 167.29 66.5175 167.505 67.2275 167.935C67.9475 168.365 68.4825 168.925 68.8325 169.615L67.2425 170.71C67.0625 170.31 66.8275 169.995 66.5375 169.765C66.2475 169.525 65.9375 169.36 65.6075 169.27C65.2775 169.17 64.9525 169.12 64.6325 169.12C64.1125 169.12 63.6575 169.225 63.2675 169.435C62.8875 169.645 62.5675 169.92 62.3075 170.26C62.0475 170.6 61.8525 170.98 61.7225 171.4C61.6025 171.82 61.5425 172.24 61.5425 172.66C61.5425 173.13 61.6175 173.585 61.7675 174.025C61.9175 174.455 62.1275 174.84 62.3975 175.18C62.6775 175.51 63.0075 175.775 63.3875 175.975C63.7775 176.165 64.2025 176.26 64.6625 176.26C64.9925 176.26 65.3275 176.205 65.6675 176.095C66.0075 175.985 66.3225 175.81 66.6125 175.57C66.9025 175.33 67.1275 175.02 67.2875 174.64L68.9825 175.615C68.7725 176.145 68.4275 176.595 67.9475 176.965C67.4775 177.335 66.9475 177.615 66.3575 177.805C65.7675 177.995 65.1825 178.09 64.6025 178.09C63.8425 178.09 63.1475 177.935 62.5175 177.625C61.8875 177.305 61.3425 176.885 60.8825 176.365C60.4325 175.835 60.0775 175.245 59.8175 174.595C59.5675 173.935 59.4425 173.27 59.4425 172.6ZM69.6357 175.675C69.6357 175.165 69.7757 174.72 70.0557 174.34C70.3457 173.95 70.7457 173.65 71.2557 173.44C71.7657 173.23 72.3507 173.125 73.0107 173.125C73.3407 173.125 73.6757 173.15 74.0157 173.2C74.3557 173.25 74.6507 173.33 74.9007 173.44V173.02C74.9007 172.52 74.7507 172.135 74.4507 171.865C74.1607 171.595 73.7257 171.46 73.1457 171.46C72.7157 171.46 72.3057 171.535 71.9157 171.685C71.5257 171.835 71.1157 172.055 70.6857 172.345L70.0407 171.025C70.5607 170.685 71.0907 170.43 71.6307 170.26C72.1807 170.09 72.7557 170.005 73.3557 170.005C74.4757 170.005 75.3457 170.285 75.9657 170.845C76.5957 171.405 76.9107 172.205 76.9107 173.245V175.75C76.9107 175.96 76.9457 176.11 77.0157 176.2C77.0957 176.29 77.2207 176.345 77.3907 176.365V178C77.2107 178.03 77.0457 178.055 76.8957 178.075C76.7557 178.095 76.6357 178.105 76.5357 178.105C76.1357 178.105 75.8307 178.015 75.6207 177.835C75.4207 177.655 75.2957 177.435 75.2457 177.175L75.2007 176.77C74.8607 177.21 74.4357 177.55 73.9257 177.79C73.4157 178.03 72.8957 178.15 72.3657 178.15C71.8457 178.15 71.3757 178.045 70.9557 177.835C70.5457 177.615 70.2207 177.32 69.9807 176.95C69.7507 176.57 69.6357 176.145 69.6357 175.675ZM74.5257 176.08C74.6357 175.96 74.7257 175.84 74.7957 175.72C74.8657 175.6 74.9007 175.49 74.9007 175.39V174.595C74.6607 174.495 74.4007 174.42 74.1207 174.37C73.8407 174.31 73.5757 174.28 73.3257 174.28C72.8057 174.28 72.3757 174.395 72.0357 174.625C71.7057 174.845 71.5407 175.14 71.5407 175.51C71.5407 175.71 71.5957 175.9 71.7057 176.08C71.8157 176.26 71.9757 176.405 72.1857 176.515C72.3957 176.625 72.6457 176.68 72.9357 176.68C73.2357 176.68 73.5307 176.625 73.8207 176.515C74.1107 176.395 74.3457 176.25 74.5257 176.08ZM78.774 167.05H80.784V175.48C80.784 175.84 80.844 176.085 80.964 176.215C81.084 176.335 81.249 176.395 81.459 176.395C81.619 176.395 81.784 176.375 81.954 176.335C82.124 176.295 82.274 176.245 82.404 176.185L82.674 177.715C82.404 177.845 82.089 177.945 81.729 178.015C81.369 178.085 81.044 178.12 80.754 178.12C80.124 178.12 79.634 177.955 79.284 177.625C78.944 177.285 78.774 176.805 78.774 176.185V167.05ZM87.1948 178.15C86.5648 178.15 85.9948 178.045 85.4848 177.835C84.9748 177.615 84.5398 177.32 84.1798 176.95C83.8198 176.57 83.5398 176.14 83.3398 175.66C83.1498 175.17 83.0548 174.655 83.0548 174.115C83.0548 173.365 83.2198 172.68 83.5498 172.06C83.8898 171.44 84.3698 170.945 84.9898 170.575C85.6198 170.195 86.3598 170.005 87.2098 170.005C88.0698 170.005 88.8048 170.195 89.4148 170.575C90.0248 170.945 90.4898 171.44 90.8098 172.06C91.1398 172.67 91.3048 173.33 91.3048 174.04C91.3048 174.16 91.2998 174.285 91.2898 174.415C91.2798 174.535 91.2698 174.635 91.2598 174.715H85.1848C85.2248 175.115 85.3398 175.465 85.5298 175.765C85.7298 176.065 85.9798 176.295 86.2798 176.455C86.5898 176.605 86.9198 176.68 87.2698 176.68C87.6698 176.68 88.0448 176.585 88.3948 176.395C88.7548 176.195 88.9998 175.935 89.1298 175.615L90.8548 176.095C90.6648 176.495 90.3898 176.85 90.0298 177.16C89.6798 177.47 89.2648 177.715 88.7848 177.895C88.3048 178.065 87.7748 178.15 87.1948 178.15ZM85.1398 173.44H89.2498C89.2098 173.04 89.0948 172.695 88.9048 172.405C88.7248 172.105 88.4848 171.875 88.1848 171.715C87.8848 171.545 87.5498 171.46 87.1798 171.46C86.8198 171.46 86.4898 171.545 86.1898 171.715C85.8998 171.875 85.6598 172.105 85.4698 172.405C85.2898 172.695 85.1798 173.04 85.1398 173.44ZM99.8343 178H97.8243V173.59C97.8243 172.96 97.7143 172.5 97.4943 172.21C97.2743 171.92 96.9693 171.775 96.5793 171.775C96.3093 171.775 96.0343 171.845 95.7543 171.985C95.4843 172.125 95.2393 172.32 95.0193 172.57C94.7993 172.81 94.6393 173.09 94.5393 173.41V178H92.5293V170.14H94.3443V171.595C94.5443 171.255 94.7993 170.97 95.1093 170.74C95.4193 170.5 95.7743 170.32 96.1743 170.2C96.5843 170.07 97.0143 170.005 97.4643 170.005C97.9543 170.005 98.3543 170.095 98.6643 170.275C98.9843 170.445 99.2243 170.68 99.3843 170.98C99.5543 171.27 99.6693 171.6 99.7293 171.97C99.7993 172.34 99.8343 172.715 99.8343 173.095V178ZM101.102 174.07C101.102 173.31 101.252 172.625 101.552 172.015C101.852 171.395 102.267 170.905 102.797 170.545C103.327 170.185 103.932 170.005 104.612 170.005C105.192 170.005 105.712 170.15 106.172 170.44C106.642 170.72 107.007 171.08 107.267 171.52V167.05H109.277V175.75C109.277 175.96 109.312 176.11 109.382 176.2C109.452 176.29 109.572 176.345 109.742 176.365V178C109.392 178.07 109.107 178.105 108.887 178.105C108.527 178.105 108.227 178.015 107.987 177.835C107.757 177.655 107.627 177.42 107.597 177.13L107.567 176.635C107.277 177.125 106.882 177.5 106.382 177.76C105.892 178.02 105.377 178.15 104.837 178.15C104.297 178.15 103.797 178.045 103.337 177.835C102.887 177.625 102.492 177.335 102.152 176.965C101.822 176.595 101.562 176.165 101.372 175.675C101.192 175.175 101.102 174.64 101.102 174.07ZM107.267 175.12V173.245C107.167 172.955 107.007 172.695 106.787 172.465C106.567 172.235 106.322 172.055 106.052 171.925C105.782 171.785 105.512 171.715 105.242 171.715C104.932 171.715 104.652 171.78 104.402 171.91C104.152 172.04 103.932 172.215 103.742 172.435C103.562 172.655 103.422 172.91 103.322 173.2C103.232 173.49 103.187 173.795 103.187 174.115C103.187 174.435 103.237 174.74 103.337 175.03C103.447 175.31 103.602 175.555 103.802 175.765C104.002 175.975 104.232 176.14 104.492 176.26C104.762 176.38 105.052 176.44 105.362 176.44C105.552 176.44 105.742 176.41 105.932 176.35C106.132 176.28 106.317 176.19 106.487 176.08C106.667 175.96 106.822 175.82 106.952 175.66C107.092 175.49 107.197 175.31 107.267 175.12ZM110.71 175.675C110.71 175.165 110.85 174.72 111.13 174.34C111.42 173.95 111.82 173.65 112.33 173.44C112.84 173.23 113.425 173.125 114.085 173.125C114.415 173.125 114.75 173.15 115.09 173.2C115.43 173.25 115.725 173.33 115.975 173.44V173.02C115.975 172.52 115.825 172.135 115.525 171.865C115.235 171.595 114.8 171.46 114.22 171.46C113.79 171.46 113.38 171.535 112.99 171.685C112.6 171.835 112.19 172.055 111.76 172.345L111.115 171.025C111.635 170.685 112.165 170.43 112.705 170.26C113.255 170.09 113.83 170.005 114.43 170.005C115.55 170.005 116.42 170.285 117.04 170.845C117.67 171.405 117.985 172.205 117.985 173.245V175.75C117.985 175.96 118.02 176.11 118.09 176.2C118.17 176.29 118.295 176.345 118.465 176.365V178C118.285 178.03 118.12 178.055 117.97 178.075C117.83 178.095 117.71 178.105 117.61 178.105C117.21 178.105 116.905 178.015 116.695 177.835C116.495 177.655 116.37 177.435 116.32 177.175L116.275 176.77C115.935 177.21 115.51 177.55 115 177.79C114.49 178.03 113.97 178.15 113.44 178.15C112.92 178.15 112.45 178.045 112.03 177.835C111.62 177.615 111.295 177.32 111.055 176.95C110.825 176.57 110.71 176.145 110.71 175.675ZM115.6 176.08C115.71 175.96 115.8 175.84 115.87 175.72C115.94 175.6 115.975 175.49 115.975 175.39V174.595C115.735 174.495 115.475 174.42 115.195 174.37C114.915 174.31 114.65 174.28 114.4 174.28C113.88 174.28 113.45 174.395 113.11 174.625C112.78 174.845 112.615 175.14 112.615 175.51C112.615 175.71 112.67 175.9 112.78 176.08C112.89 176.26 113.05 176.405 113.26 176.515C113.47 176.625 113.72 176.68 114.01 176.68C114.31 176.68 114.605 176.625 114.895 176.515C115.185 176.395 115.42 176.25 115.6 176.08ZM124.543 171.88C123.933 171.88 123.388 172 122.908 172.24C122.428 172.47 122.083 172.805 121.873 173.245V178H119.863V170.14H121.708V171.82C121.988 171.28 122.343 170.855 122.773 170.545C123.203 170.235 123.658 170.065 124.138 170.035C124.248 170.035 124.333 170.035 124.393 170.035C124.453 170.035 124.503 170.04 124.543 170.05V171.88ZM125.664 178V170.14H127.674V178H125.664ZM125.664 169.045V167.05H127.674V169.045H125.664ZM128.962 176.77L133.297 171.55H129.142V170.14H135.457V171.37L131.152 176.59H135.532V178H128.962V176.77ZM136.345 175.675C136.345 175.165 136.485 174.72 136.765 174.34C137.055 173.95 137.455 173.65 137.965 173.44C138.475 173.23 139.06 173.125 139.72 173.125C140.05 173.125 140.385 173.15 140.725 173.2C141.065 173.25 141.36 173.33 141.61 173.44V173.02C141.61 172.52 141.46 172.135 141.16 171.865C140.87 171.595 140.435 171.46 139.855 171.46C139.425 171.46 139.015 171.535 138.625 171.685C138.235 171.835 137.825 172.055 137.395 172.345L136.75 171.025C137.27 170.685 137.8 170.43 138.34 170.26C138.89 170.09 139.465 170.005 140.065 170.005C141.185 170.005 142.055 170.285 142.675 170.845C143.305 171.405 143.62 172.205 143.62 173.245V175.75C143.62 175.96 143.655 176.11 143.725 176.2C143.805 176.29 143.93 176.345 144.1 176.365V178C143.92 178.03 143.755 178.055 143.605 178.075C143.465 178.095 143.345 178.105 143.245 178.105C142.845 178.105 142.54 178.015 142.33 177.835C142.13 177.655 142.005 177.435 141.955 177.175L141.91 176.77C141.57 177.21 141.145 177.55 140.635 177.79C140.125 178.03 139.605 178.15 139.075 178.15C138.555 178.15 138.085 178.045 137.665 177.835C137.255 177.615 136.93 177.32 136.69 176.95C136.46 176.57 136.345 176.145 136.345 175.675ZM141.235 176.08C141.345 175.96 141.435 175.84 141.505 175.72C141.575 175.6 141.61 175.49 141.61 175.39V174.595C141.37 174.495 141.11 174.42 140.83 174.37C140.55 174.31 140.285 174.28 140.035 174.28C139.515 174.28 139.085 174.395 138.745 174.625C138.415 174.845 138.25 175.14 138.25 175.51C138.25 175.71 138.305 175.9 138.415 176.08C138.525 176.26 138.685 176.405 138.895 176.515C139.105 176.625 139.355 176.68 139.645 176.68C139.945 176.68 140.24 176.625 140.53 176.515C140.82 176.395 141.055 176.25 141.235 176.08ZM149.158 178.15C148.518 178.15 147.943 178.045 147.433 177.835C146.923 177.615 146.488 177.315 146.128 176.935C145.768 176.545 145.488 176.105 145.288 175.615C145.098 175.125 145.003 174.61 145.003 174.07C145.003 173.33 145.168 172.655 145.498 172.045C145.838 171.425 146.318 170.93 146.938 170.56C147.558 170.19 148.293 170.005 149.143 170.005C149.993 170.005 150.723 170.19 151.333 170.56C151.943 170.93 152.398 171.415 152.698 172.015L150.733 172.615C150.563 172.325 150.338 172.105 150.058 171.955C149.778 171.795 149.468 171.715 149.128 171.715C148.748 171.715 148.398 171.815 148.078 172.015C147.768 172.205 147.523 172.48 147.343 172.84C147.163 173.19 147.073 173.6 147.073 174.07C147.073 174.53 147.163 174.94 147.343 175.3C147.533 175.65 147.783 175.93 148.093 176.14C148.403 176.34 148.748 176.44 149.128 176.44C149.368 176.44 149.593 176.4 149.803 176.32C150.023 176.24 150.218 176.13 150.388 175.99C150.558 175.85 150.683 175.69 150.763 175.51L152.728 176.11C152.548 176.5 152.283 176.85 151.933 177.16C151.593 177.47 151.188 177.715 150.718 177.895C150.258 178.065 149.738 178.15 149.158 178.15ZM153.965 178V170.14H155.975V178H153.965ZM153.965 169.045V167.05H155.975V169.045H153.965ZM161.418 178.15C160.778 178.15 160.203 178.045 159.693 177.835C159.183 177.615 158.748 177.315 158.388 176.935C158.038 176.555 157.768 176.12 157.578 175.63C157.388 175.14 157.293 174.625 157.293 174.085C157.293 173.535 157.388 173.015 157.578 172.525C157.768 172.035 158.038 171.6 158.388 171.22C158.748 170.84 159.183 170.545 159.693 170.335C160.203 170.115 160.778 170.005 161.418 170.005C162.058 170.005 162.628 170.115 163.128 170.335C163.638 170.545 164.073 170.84 164.433 171.22C164.793 171.6 165.063 172.035 165.243 172.525C165.433 173.015 165.528 173.535 165.528 174.085C165.528 174.625 165.433 175.14 165.243 175.63C165.063 176.12 164.793 176.555 164.433 176.935C164.083 177.315 163.653 177.615 163.143 177.835C162.633 178.045 162.058 178.15 161.418 178.15ZM159.363 174.085C159.363 174.545 159.453 174.955 159.633 175.315C159.813 175.665 160.058 175.94 160.368 176.14C160.678 176.34 161.028 176.44 161.418 176.44C161.798 176.44 162.143 176.34 162.453 176.14C162.763 175.93 163.008 175.65 163.188 175.3C163.378 174.94 163.473 174.53 163.473 174.07C163.473 173.62 163.378 173.215 163.188 172.855C163.008 172.495 162.763 172.215 162.453 172.015C162.143 171.815 161.798 171.715 161.418 171.715C161.028 171.715 160.678 171.82 160.368 172.03C160.058 172.23 159.813 172.51 159.633 172.87C159.453 173.22 159.363 173.625 159.363 174.085ZM162.078 169.225L160.788 168.835L161.598 167.05H163.473L162.078 169.225ZM174.19 178H172.18V173.59C172.18 172.96 172.07 172.5 171.85 172.21C171.63 171.92 171.325 171.775 170.935 171.775C170.665 171.775 170.39 171.845 170.11 171.985C169.84 172.125 169.595 172.32 169.375 172.57C169.155 172.81 168.995 173.09 168.895 173.41V178H166.885V170.14H168.7V171.595C168.9 171.255 169.155 170.97 169.465 170.74C169.775 170.5 170.13 170.32 170.53 170.2C170.94 170.07 171.37 170.005 171.82 170.005C172.31 170.005 172.71 170.095 173.02 170.275C173.34 170.445 173.58 170.68 173.74 170.98C173.91 171.27 174.025 171.6 174.085 171.97C174.155 172.34 174.19 172.715 174.19 173.095V178Z" fill="white"/>
<path d="M154.25 50.625H78.7503C71.8007 50.625 66.167 56.1095 66.167 62.875V136.375C66.167 143.14 71.8007 148.625 78.7503 148.625H154.25C161.2 148.625 166.834 143.14 166.834 136.375V62.875C166.834 56.1095 161.2 50.625 154.25 50.625Z" stroke="white" stroke-width="5" stroke-linecap="round" stroke-linejoin="round"/>
<path d="M141.667 38.375V62.875M91.3337 38.375V62.875M66.167 87.375H166.834M110.209 111.875H116.5M116.5 111.875V130.25" stroke="white" stroke-width="5" stroke-linecap="round" stroke-linejoin="round"/>
<defs>
<linearGradient id="paint0_linear_211_69" x1="116.5" y1="0" x2="116.5" y2="224" gradientUnits="userSpaceOnUse">
<stop stop-color="#384F63"/>
<stop offset="1" stop-color="#319ABE"/>
</linearGradient>
</defs>
</svg>
