<svg width="33" height="32" viewBox="0 0 33 32" fill="none" xmlns="http://www.w3.org/2000/svg">
<path opacity="0.1" fill-rule="evenodd" clip-rule="evenodd" d="M0.371094 16C0.371094 7.16344 7.59231 0 16.5001 0C25.4079 0 32.6292 7.16344 32.6292 16C32.6292 24.8366 25.4079 32 16.5001 32C7.59231 32 0.371094 24.8366 0.371094 16Z" fill="#F2F2F2"/>
<path d="M10.7409 6.83289C8.90557 6.83289 7.42773 8.29889 7.42773 10.1196V21.5462C7.42773 23.3669 8.90557 24.8329 10.7409 24.8329H16.984V17.796H15.1083V15.2625H16.984V13.098C16.984 11.3975 18.0923 9.83607 20.6454 9.83607C21.6791 9.83607 22.4434 9.93451 22.4434 9.93451L22.3833 12.3004C22.3833 12.3004 21.6038 12.2931 20.7531 12.2931C19.8324 12.2931 19.6848 12.7139 19.6848 13.4125V15.2625H22.4565L22.3357 17.796H19.6848V24.8329H22.2597C24.0951 24.8329 25.5729 23.3669 25.5729 21.5462V10.1196C25.5729 8.29891 24.0951 6.8329 22.2597 6.8329H10.7409L10.7409 6.83289Z" fill="white"/>
</svg>
