<svg width="33" height="32" viewBox="0 0 33 32" fill="none" xmlns="http://www.w3.org/2000/svg">
<path opacity="0.1" fill-rule="evenodd" clip-rule="evenodd" d="M0 16C0 7.16344 7.22121 0 16.129 0C25.0369 0 32.2581 7.16344 32.2581 16C32.2581 24.8366 25.0369 32 16.129 32C7.22121 32 0 24.8366 0 16Z" fill="#F2F2F2"/>
<path fill-rule="evenodd" clip-rule="evenodd" d="M16.1298 7.46667C13.7936 7.46667 13.5004 7.47681 12.5828 7.51823C11.667 7.55983 11.0419 7.70366 10.495 7.91468C9.92921 8.13264 9.44928 8.4242 8.97114 8.89869C8.49264 9.37301 8.19873 9.8491 7.97829 10.4102C7.76503 10.9529 7.61987 11.5732 7.57865 12.4813C7.53761 13.3915 7.52686 13.6826 7.52686 16.0001C7.52686 18.3176 7.53725 18.6076 7.57883 19.5178C7.62094 20.4263 7.76593 21.0464 7.97847 21.589C8.19837 22.1502 8.49228 22.6263 8.9706 23.1006C9.44856 23.5753 9.92849 23.8676 10.4939 24.0855C11.0412 24.2965 11.6665 24.4404 12.5821 24.482C13.4997 24.5234 13.7927 24.5335 16.1287 24.5335C18.4651 24.5335 18.7574 24.5234 19.675 24.482C20.5908 24.4404 21.2166 24.2965 21.7639 24.0855C22.3295 23.8676 22.8087 23.5753 23.2867 23.1006C23.7652 22.6263 24.0591 22.1502 24.2795 21.5891C24.491 21.0464 24.6362 20.4261 24.6792 19.518C24.7204 18.6078 24.7312 18.3176 24.7312 16.0001C24.7312 13.6826 24.7204 13.3917 24.6792 12.4815C24.6362 11.573 24.491 10.9529 24.2795 10.4103C24.0591 9.8491 23.7652 9.37301 23.2867 8.89869C22.8082 8.42402 22.3297 8.13246 21.7634 7.91468C21.215 7.70366 20.5895 7.55983 19.6738 7.51823C18.7562 7.47681 18.4641 7.46667 16.1271 7.46667H16.1298ZM15.3581 9.00444C15.5871 9.00409 15.8427 9.00444 16.1298 9.00444C18.4266 9.00444 18.6988 9.01262 19.6058 9.05351C20.4445 9.09156 20.8997 9.23058 21.2029 9.34738C21.6044 9.50205 21.8906 9.68694 22.1915 9.98561C22.4926 10.2843 22.6789 10.5687 22.8352 10.967C22.953 11.2674 23.0933 11.719 23.1315 12.551C23.1727 13.4505 23.1816 13.7208 23.1816 15.9981C23.1816 18.2755 23.1727 18.5457 23.1315 19.4453C23.0931 20.2773 22.953 20.7288 22.8352 21.0293C22.6793 21.4275 22.4926 21.7111 22.1915 22.0096C21.8904 22.3082 21.6046 22.4931 21.2029 22.6478C20.9001 22.7651 20.4445 22.9038 19.6058 22.9418C18.699 22.9827 18.4266 22.9916 16.1298 22.9916C13.8328 22.9916 13.5606 22.9827 12.6538 22.9418C11.815 22.9034 11.3598 22.7644 11.0564 22.6476C10.655 22.4929 10.3682 22.3081 10.0672 22.0094C9.76609 21.7107 9.57971 21.427 9.42343 21.0286C9.30569 20.7281 9.16537 20.2766 9.12719 19.4446C9.08597 18.545 9.07773 18.2748 9.07773 15.996C9.07773 13.7172 9.08597 13.4484 9.12719 12.5488C9.16555 11.7168 9.30569 11.2653 9.42343 10.9645C9.57935 10.5662 9.76609 10.2818 10.0672 9.98312C10.3682 9.68445 10.655 9.49956 11.0564 9.34454C11.3597 9.2272 11.815 9.08853 12.6538 9.05031C13.4473 9.01476 13.7548 9.00409 15.3581 9.00231V9.00444ZM20.7216 10.4214C20.1517 10.4214 19.6893 10.8795 19.6893 11.445C19.6893 12.0103 20.1517 12.469 20.7216 12.469C21.2915 12.469 21.7539 12.0103 21.7539 11.445C21.7539 10.8797 21.2915 10.4214 20.7216 10.4214ZM16.1298 11.6178C13.6902 11.6178 11.7122 13.58 11.7122 16.0001C11.7122 18.4202 13.6902 20.3815 16.1298 20.3815C18.5695 20.3815 20.5467 18.4202 20.5467 16.0001C20.5467 13.58 18.5695 11.6178 16.1298 11.6178ZM16.1298 13.1556C17.7133 13.1556 18.9972 14.429 18.9972 16.0001C18.9972 17.5709 17.7133 18.8445 16.1298 18.8445C14.5461 18.8445 13.2624 17.5709 13.2624 16.0001C13.2624 14.429 14.5461 13.1556 16.1298 13.1556Z" fill="#F2F2F2"/>
</svg>
