<svg width="33" height="32" viewBox="0 0 33 32" fill="none" xmlns="http://www.w3.org/2000/svg">
<path opacity="0.1" fill-rule="evenodd" clip-rule="evenodd" d="M0.741699 16C0.741699 7.16344 7.96291 0 16.8707 0C25.7785 0 32.9998 7.16344 32.9998 16C32.9998 24.8366 25.7785 32 16.8707 32C7.96291 32 0.741699 24.8366 0.741699 16Z" fill="#F2F2F2"/>
<path d="M23.2926 9.28257C22.4569 8.44971 21.4618 7.78941 20.3652 7.34016C19.2685 6.8909 18.0923 6.66167 16.9051 6.66583C11.9302 6.66583 7.87581 10.6686 7.87125 15.5825C7.87125 17.1564 8.2882 18.6875 9.07538 20.0432L7.79834 24.6658L12.5875 23.426C13.9124 24.1381 15.3967 24.5113 16.9051 24.5116H16.9097C21.8857 24.5116 25.9389 20.5089 25.9435 15.5904C25.9446 14.4182 25.7109 13.2574 25.2557 12.1748C24.8006 11.0922 24.133 10.1093 23.2914 9.28257H23.2926ZM16.9051 23.0019C15.5597 23.0023 14.239 22.6448 13.0819 21.9669L12.8085 21.8049L9.96737 22.5407L10.7261 19.8035L10.5484 19.5212C9.79627 18.3403 9.39851 16.9731 9.40119 15.578C9.40119 11.4988 12.7698 8.17107 16.9097 8.17107C17.8959 8.16933 18.8727 8.36038 19.7839 8.73322C20.695 9.10607 21.5224 9.65332 22.2183 10.3434C22.9167 11.0309 23.4703 11.848 23.8473 12.7478C24.2243 13.6476 24.4171 14.6122 24.4147 15.5859C24.4101 19.6798 21.0415 23.0019 16.9051 23.0019ZM21.0233 17.4512C20.7989 17.3398 19.6904 16.8009 19.482 16.7244C19.2746 16.6513 19.1231 16.613 18.975 16.8358C18.8235 17.0574 18.3906 17.5625 18.2607 17.7077C18.1309 17.8573 17.9964 17.8742 17.7709 17.7639C17.5465 17.6514 16.8185 17.4174 15.9573 16.6558C15.2852 16.0652 14.8352 15.3339 14.7007 15.1123C14.5709 14.8896 14.6882 14.7703 14.801 14.6589C14.9001 14.5599 15.0254 14.3979 15.1382 14.2697C15.2521 14.1414 15.2897 14.0469 15.3638 13.8984C15.4378 13.7477 15.4025 13.6194 15.3467 13.5081C15.2897 13.3967 14.8397 12.2976 14.6495 11.8543C14.4672 11.4167 14.2815 11.4774 14.1425 11.4718C14.0127 11.4639 13.8612 11.4639 13.7096 11.4639C13.5952 11.4667 13.4826 11.4929 13.3789 11.5407C13.2752 11.5885 13.1826 11.657 13.107 11.7418C12.8997 11.9646 12.3198 12.5034 12.3198 13.6026C12.3198 14.7017 13.1287 15.758 13.2426 15.9077C13.3542 16.0573 14.8306 18.3062 17.0965 19.2737C17.6319 19.5043 18.0534 19.6404 18.3826 19.7439C18.9238 19.9149 19.4125 19.889 19.8021 19.8339C20.235 19.7687 21.1361 19.2939 21.3263 18.773C21.5132 18.251 21.5132 17.8055 21.4562 17.7122C21.4004 17.6177 21.2489 17.5625 21.0233 17.4512Z" fill="white"/>
</svg>
